<svg xmlns="http://www.w3.org/2000/svg" xmlns:xlink="http://www.w3.org/1999/xlink" viewBox="0 0 1356 72"><defs><style>.cls-1{opacity:0.8;fill:url(#linear-gradient);}.cls-2{opacity:0.5;fill:url(#linear-gradient-2);}</style><linearGradient id="linear-gradient" x1="3" y1="36" x2="1353" y2="36" gradientUnits="userSpaceOnUse"><stop offset="0" stop-color="#6ab8e2"/><stop offset="1" stop-color="#026fae"/></linearGradient><linearGradient id="linear-gradient-2" x1="3" y1="16.33" x2="536.49" y2="16.33" gradientUnits="userSpaceOnUse"><stop offset="0" stop-color="#026fae"/><stop offset="1" stop-color="#6ab8e2"/></linearGradient></defs><title>banner-smmm</title><g id="Layer_3" data-name="Layer 3"><path class="cls-1" d="M1353,23.3v9q-8.54,1.53-16.94,3C997.76,93.9,831.67,68.84,652.94,49,491.76,31.1,320.3,17.44,3,73.21V7.76c240.84-24.18,397.91,6,533.49,26.11,29.17,3.44,57.34,7.17,85.14,10.9,3.5.35,7,.67,10.47,1C1061,78.12,933-43,1353,23.3Z"/><path class="cls-2" d="M536.49,33.87C400.91,17.88,243.85,8.12,3,32.3V7.76C243.84-16.42,400.91,13.79,536.49,33.87Z"/></g></svg>