<svg xmlns="http://www.w3.org/2000/svg" viewBox="0 0 867 454"><defs><style>.cls-1{fill:#044b4f;}.cls-2{fill:#e5e7e7;}.cls-3{fill:#fefefe;}.cls-4{fill:#f2f2f3;}.cls-5{fill:#f3f2f3;}.cls-6{fill:#a6aaac;}.cls-7{fill:#586566;}.cls-8{fill:#cef0ea;}.cls-9{fill:#daf3ef;}.cls-10{fill:#ccefe9;}.cls-11{fill:#fcfdfd;}.cls-12{fill:#d4f1ed;}.cls-13{fill:#d9f3ef;}.cls-14{fill:#d6f2ed;}.cls-15{fill:#d7f2ee;}.cls-16{fill:#ddf4f0;}.cls-17{fill:#dff5f1;}.cls-18{fill:#cff0ea;}.cls-19{fill:#e4f6f3;}.cls-20{fill:#e2f6f2;}.cls-21{fill:#d8f3ee;}.cls-22{fill:#d0f0eb;}.cls-23{fill:#e0f5f2;}.cls-24{fill:#fafdfc;}.cls-25{fill:#fbfdfd;}.cls-26{fill:#fdfdfd;}.cls-27{fill:#85cfce;}.cls-28{fill:#f58336;}.cls-29{fill:#777474;}.cls-30{fill:#6b6c6f;}.cls-31{fill:#054c4f;}.cls-32{fill:#f6aa3a;}.cls-33{fill:#4d6361;}.cls-34{fill:#5e7a7b;}.cls-35{fill:#facbac;}.cls-36{fill:#fac9a8;}.cls-37{fill:#f59350;}.cls-38{fill:#f69655;}.cls-39{fill:#fcbf33;}.cls-40{fill:#d09b2c;}.cls-41{fill:#f6a938;}.cls-42{fill:#ebedee;}.cls-43{fill:#094f53;}.cls-44{fill:#fbfbfb;}.cls-45{fill:#eae8e9;}.cls-46{fill:#c9504b;}.cls-47{fill:#1bba9f;}.cls-48{fill:#ed6726;}.cls-49{fill:#dedfe0;}.cls-50{fill:#dee0e0;}.cls-51{fill:#dfe0e1;}.cls-52{fill:#cb534f;}.cls-53{fill:#40657d;}.cls-54{fill:#923a3f;}.cls-55{fill:#f47e2f;}.cls-56{fill:#f48134;}.cls-57{fill:#dcddde;}.cls-58{fill:#f37a27;}.cls-59{fill:#e2e3e4;}.cls-60{fill:#e3e3e4;}.cls-61{fill:#e4e5e5;}.cls-62{fill:#466a82;}.cls-63{fill:#e1e1e2;}.cls-64{fill:#e1e2e3;}.cls-65{fill:#e1e2e2;}.cls-66{fill:#dbdcdd;}.cls-67{fill:#d9dadb;}.cls-68{fill:#aa7078;}.cls-69{fill:#fefbf9;}.cls-70{fill:#fdf0e8;}.cls-71{fill:#75c6de;}.cls-72{fill:#5276ac;}.cls-73{fill:#fefcfc;}.cls-74{fill:#fcfcfb;}.cls-75{fill:#ca524e;}.cls-76{fill:#f3d9d9;}.cls-77{fill:#efb988;}.cls-78{fill:#fef5f0;}.cls-79{fill:#fef8f5;}.cls-80{fill:#dcc8cc;}.cls-81{fill:#f0f7fa;}.cls-82{fill:#f5a938;}.cls-83{fill:#f26c2c;}.cls-84{fill:#608d90;}.cls-85{fill:#639092;}.cls-86{fill:#f68c44;}.cls-87{fill:#44797c;}.cls-88{fill:#ca504c;}.cls-89{fill:#faf1f0;}</style></defs><title>how-we-w</title><g id="Layer_3" data-name="Layer 3"><path class="cls-1" d="M345.22,223.41c.65-16.9.65-16.9,17.47-16.9H507.14c15.63,0,15.63,0,14.42,15.91.07.56.19,1.12.22,1.67,1.85,31.1,2.8,62.19-.46,93.27-6.47,3.4-8.06-.65-8.29-5.79-.4-9-.13-17.94-.14-26.91,0-5.36-.4-10.62-3.39-15.3-2.57-1.73-5.49-1.19-8.28-1.19-43.91,0-87.83-.23-131.74.25-3.9,0-8-.65-11.37,2.25-3.4,5-3.62,10.59-3.62,16.32,0,38.52.09,77,0,115.56,0,9.55-1.69,10.89-10,9.13-2.31-2.41-2.89-5.41-2.89-8.6,0-53.94-.67-107.88.34-161.83C342,235.12,339.9,228.58,345.22,223.41Z"/><path class="cls-2" d="M599.33,424.46c-2.4,8.33-8.34,11.69-16.57,11.69q-149,0-298.09,0c-8.23,0-14.18-3.35-16.58-11.68-1.55-6.57,1.35-9.8,7.81-9.81,36.65-.07,73.31-.24,110,.07a7.89,7.89,0,0,1,3.24.88c2.91,2.54,6.26,3.31,10.14,3.29q34.41-.18,68.83,0c3.84,0,7.25-.64,10.3-3,37.68-1.72,75.37-1.38,113.06-1.26C597.9,414.67,600.89,417.82,599.33,424.46Z"/><path class="cls-3" d="M592.07,154.31c23.48-7.91,47,3.16,55.14,25.91,8,22.46-3.74,46.7-26.58,54.94-2.86,1-6.16,1.11-8,4.22-.46.77-2.19,1.62-2.8,1.33-12.86-6.16-28.64-6.67-37.61-20.38-7.2-11-10.35-22.54-7.3-35.43,3.18-13.48,11-23.32,23.69-29.17C589.36,154.34,591,155,592.07,154.31Z"/><path class="cls-3" d="M277,153.75c2.49,1.79,5,3.57,7.47,5.36,14.79,10.69,20.83,25.36,17.79,43.06-2.94,17.11-13.6,28.3-30.14,33.56-5.42,1.72-12.14,5.3-16.41,3.53-11.2-4.63-23.22-8.62-30.74-19.78-9.8-14.53-10.44-34.09-.6-48.86,10.19-15.31,28.12-22,47-17.63,1.9.44,3.86.62,5.79.92Z"/><path class="cls-3" d="M505.06,77.5C512.67,69,520.34,60.72,532.15,58c17.31-3.93,32.29.23,43.8,13.75,11.28,13.25,12.85,28.51,6.82,44.71-4.19,11.26-12.13,18.51-23.21,22.78-10.82,4.17-21.6,4.42-32.35.09-22.32-9-32.49-33.35-23.69-56.4.7-1.82,1.14-3.74,1.7-5.61Z"/><path class="cls-3" d="M362.22,79.2c3.74,10.55,5.9,21.19,2.65,32.34-8,27.49-39.25,39.1-64.49,24.26-16-9.42-20.8-24.34-19.31-41.14,1.59-17.9,12.12-30.44,29.36-35.91s32.42-1.16,45,11.91c1.89,2,3.25,4.44,4.85,6.67C362,76.82,362.53,77.54,362.22,79.2Z"/><path class="cls-3" d="M433.07,103.73a42.74,42.74,0,0,1-39.42-27.34c-1.2-3-1.26-6.61-5.81-7.33-2.37-.38-2.9-3.68-.87-4.47,5.26-2,3.72-6.31,4.19-10,2.69-21,21.54-37.07,43.17-36.8s40,16.94,42,38.05c.31,3.21-.8,6.72,3.76,8.36,2,.72,2.21,4.14-.14,4.57-5.29,1-5.23,5.34-6.68,8.75A42.79,42.79,0,0,1,433.07,103.73Z"/><path class="cls-4" d="M345.22,223.41q0,8.79,0,17.59c-5.07,5.26-11.65,3.32-17.67,3.48-13.72.36-14.45.85-14.47,14.42C313,305,313.1,351,313,397.08c0,5,.81,10.27-2.77,14.66-4.91,3.54-9.7,4.09-14.27-.6,0-17.31.12-34.62-.05-51.93,0-4.37,2.15-9.71-4.27-12.22-1.64-.64-1.46-3.57.3-4.19,5.82-2.06,4-6.79,4-10.67.1-32.35,0-64.7.06-97.05,0-10.59,1.12-11.69,11.76-11.72C320.25,223.32,332.74,223.39,345.22,223.41Z"/><path class="cls-5" d="M522.24,223.86q20.37-.25,40.74-.5c7.54-.1,8.52,4.67,8.5,10.76q-.16,49.71,0,99.43c0,3.46-1.14,7.3,3.61,9.27a2.59,2.59,0,0,1,.15,4.78c-5.26,2.12-3.7,6.37-3.72,10-.1,17.85,0,35.69,0,53.54-4.49,4.66-9.25,4.11-14.16.75-3.69-4.33-2.87-9.62-2.88-14.65q-.13-67.23,0-134.46c0-3.12-.08-6.24-.09-9.36,0-6-2.94-8.8-8.91-8.81-4.54,0-9.08,0-13.61-.13-3.43-.09-6.86-.14-9.45-2.93A38.29,38.29,0,0,1,522.24,223.86Z"/><path class="cls-6" d="M557.65,411.2l13.79,0c6.19.09,12.38.22,18.57.25,11.32.06,12,1,9.31,13.07.47-7.1-4.42-6.46-9.09-6.45q-56.11.05-112.21,0c-10.08,1.76-20.25.81-30.37.73-19.43-.16-38.88,1.08-58.28-.72q-56.11,0-112.23,0c-4.68,0-9.55-.61-9.07,6.47-2.72-12-2-13,9.31-13.08,6.19,0,12.38-.17,18.57-.25l13.8,0c1.47-1.79,3.3-3.37,5.63-3.25,10.07.5,20.63-3.46,30.05,3.16,6.77,2.2,6.64-2.08,6.64-6.77q-.1-65.38,0-130.76c0-2.9-1.42-6.26,1.57-8.7,3.22,2.62,3.62,6.24,3.55,10-.42,22.1-.21,44.21-.41,66.31-.18,20.09,1.19,40.2-.36,60.3-.34,4.41,2.25,6,6,6.77,24.79.85,49.57.06,74.35.41a18.88,18.88,0,0,1,3.15.43c21.38,2.27,42.79,1.38,64.19.5,6-1.1,7-4.51,6.65-10.41-1.12-17.22-.53-34.51-.2-51.75.06-3.22-1-8.47,4.82-9.38,3.9,2.66,3.42,6.77,3.43,10.67,0,16.85,0,33.7.05,50.56,0,3.47-1.08,7.74,4.49,8.29,8.15.05,16.29-.12,24.43,0C551.5,407.68,555.15,407.84,557.65,411.2Z"/><path class="cls-7" d="M522.24,223.86l.09,16.8c3.51,3.24,3.46,7.51,3.47,11.79,0,16.12.11,32.24,0,48.36-.05,5.39.85,9.92,5.49,13.4,3.21,2.4,5.08,6,6.4,9.84,3.52,10.09-.53,17.05-11.57,20a4.29,4.29,0,0,1-2.44-.9c-1.57-2.85.22-4.74,1.88-6.75,6.17-7.47,5.88-9.28-2.31-14.93a6.32,6.32,0,0,1-2.69-3.15q-.07-.59-.14-1.17.08-42,.18-83.92c0-3.63-.73-7.37,1-10.85A7,7,0,0,1,522.24,223.86Z"/><path class="cls-8" d="M285.46,331.26c2.63-.15,4,1.07,4.29,2.77a3.32,3.32,0,1,1-6.58.78C283,332.81,284.39,331.86,285.46,331.26Z"/><path class="cls-9" d="M592.07,154.31a3.7,3.7,0,0,1-3.5,1.42c-1.4-2-5.39-2.48-4-6.24a3,3,0,0,1,3.22-2C592.36,147.78,589.39,152.8,592.07,154.31Z"/><path class="cls-10" d="M494.05,70.22c-.21,2-1.24,3.29-3.07,3.38a3.35,3.35,0,0,1-3.76-3.45,3,3,0,0,1,3-3.21C492.53,66.79,493.81,68,494.05,70.22Z"/><path class="cls-11" d="M362.22,79.2l-2-1.87c-.07-3.09.51-5.73,4.42-5.6,1.49,0,2.87.81,2.91,2.46C367.66,77.74,365.44,79.07,362.22,79.2Z"/><path class="cls-12" d="M380.05,69.84c-.23,2.23-1.26,3.65-3.13,3.75a3.19,3.19,0,0,1-3.55-3.71,3.14,3.14,0,0,1,3.48-2.94A3.2,3.2,0,0,1,380.05,69.84Z"/><path class="cls-13" d="M259.76,266.2c-2.49.07-3.67-1.11-3.84-2.86-.21-2.17.9-3.74,3.3-3.71,2,0,2.84,1.48,2.88,3.27S261.22,266,259.76,266.2Z"/><path class="cls-14" d="M611.51,262.82c0,1.81-.69,3.29-2.57,3.63-2.39.44-3.62-.93-3.67-3.19a2.87,2.87,0,0,1,2.85-3.27C610.1,259.85,611.06,261,611.51,262.82Z"/><path class="cls-13" d="M277.17,153.93c-.65-2.75-1.56-5.75,2.62-6.33a2.77,2.77,0,0,1,3.17,3c-.33,3.77-2.81,4.29-6,3.13Z"/><path class="cls-15" d="M584,334.85c-.26,1.83-1.1,3.19-3.08,3.22-2.36,0-3.63-1.39-3.35-3.65a3.12,3.12,0,0,1,3.46-2.83C583,331.69,583.91,333,584,334.85Z"/><path class="cls-16" d="M598.85,303.81a3.24,3.24,0,1,1,3-3.32C601.92,302.34,600.75,303.51,598.85,303.81Z"/><path class="cls-15" d="M609.09,275.72a3.17,3.17,0,1,1-3.17-2.9C607.76,272.79,609,273.67,609.09,275.72Z"/><path class="cls-17" d="M605.92,288.38c-.43,2.21-1.36,3.56-3.35,3.37a3.31,3.31,0,1,1,.65-6.58C605.22,285.46,605.72,287,605.92,288.38Z"/><path class="cls-16" d="M596.83,311.86c-.19,2.31-1.18,3.53-3,3.79A2.84,2.84,0,0,1,590.3,313a3.09,3.09,0,0,1,3.26-3.82C595.6,309.11,596.28,310.64,596.83,311.86Z"/><path class="cls-18" d="M587.83,320.6a2.93,2.93,0,0,1,2.87,3.34c-.09,1.89-1.16,3.23-3,3.25a3.05,3.05,0,0,1-3.33-3.76A3.15,3.15,0,0,1,587.83,320.6Z"/><path class="cls-19" d="M273.82,308.89A3.14,3.14,0,0,1,277,312c.13,2.38-1.34,3.63-3.57,3.44a3,3,0,0,1-2.83-3.42A3.1,3.1,0,0,1,273.82,308.89Z"/><path class="cls-20" d="M269.42,303.66c-2.24-.1-3.59-1.15-3.83-2.9-.31-2.24.89-3.76,3.28-3.68a3.05,3.05,0,0,1,3.08,3.18A3.29,3.29,0,0,1,269.42,303.66Z"/><path class="cls-21" d="M264.66,275.82c-.4,1.8-1.39,3-3.34,2.9a2.9,2.9,0,0,1-3.09-3.07c0-2.37,1.32-3.65,3.58-3.33A3.37,3.37,0,0,1,264.66,275.82Z"/><path class="cls-22" d="M264.87,291.51a3.2,3.2,0,0,1-3.39-2.89,2.9,2.9,0,0,1,2.45-3.67c2.31-.4,3.76.81,3.93,3.11C268,290,266.71,291,264.87,291.51Z"/><path class="cls-23" d="M289.8,139.46c-.09,1.83-.86,3.33-2.73,3.63-2.29.37-3.73-.85-3.78-3.19a3.27,3.27,0,0,1,6.51-.44Z"/><path class="cls-24" d="M583.95,139.41c-.28,2.76-1.64,3.55-3.56,3.33a2.73,2.73,0,0,1-2.59-2.83c0-2,1-3.17,3.06-3.16A3,3,0,0,1,583.95,139.41Z"/><path class="cls-11" d="M505.23,77.36c-2.6.71-5.23,1.19-5.59-2.59a2.59,2.59,0,0,1,3.17-3c3.56.6,3.36,3.05,2.26,5.7Z"/><path class="cls-25" d="M610.2,253.54c-2.44-.2-3.56-1.31-3.44-3.31s1.4-3,3.39-2.77a2.61,2.61,0,0,1,2.54,2.76A2.89,2.89,0,0,1,610.2,253.54Z"/><path class="cls-11" d="M258.46,253.09c-2.7,0-3.81-.91-3.73-3s1.15-3.11,3.16-3a2.66,2.66,0,0,1,2.66,2.68C260.68,251.64,260,253,258.46,253.09Z"/><path class="cls-11" d="M279.82,326.81a2.91,2.91,0,0,1-3.05-3c-.13-1.93.72-3.15,2.77-3.2a2.85,2.85,0,0,1,3.22,2.9C282.87,325.41,281.78,326.5,279.82,326.81Z"/><path class="cls-26" d="M515.52,338.1c-3.19,2.33-1.71,5.74-1.73,8.63-.15,18.7-.38,37.42.08,56.11.17,7.07-2,10-9.06,9-22,0-44,1.13-66-.57h0c.57-5,4.56-3.34,7.21-3.37,15.32-.2,30.64-.09,46-.09-41.53-.39-83,1.53-124.57.79-2.29,0-4.47-.4-5.17,2.54-6.9,1.7-8.62-1.29-8.59-7.94.23-46.1.11-92.2.11-138.3a43.36,43.36,0,0,1,5.8-.77q74.38-.06,148.76,0a42.46,42.46,0,0,1,5.8.79c1.22,15.68.72,31.4.33,47.08-.23,9-5,1.69-7.75,1.24-1.18-.81-2-2-3.17-2.85-13.92-4.46-27.93-8.29-42.81-6.5a8.73,8.73,0,0,1-5-.9c-1.49-.75-3.34-1.44-3.13-3.51s1.93-2.78,3.63-3c4.8-.52,9.63-.19,14.45-.22,7.91,0,15.81,0,23.72,0H462a37.55,37.55,0,0,1-5.1-.1c-2-.27-4.32-.8-4.35-3.19,0-2.79,2.57-2.58,4.45-2.6,11.34-.14,22.69,0,34-.07-11,0-22,.05-33,0-2.46,0-5.83.49-6.08-3-.31-4.29,3.45-3.71,6.14-3.74,10.49-.12,21,0,31.48,0-10.57,0-21.14.07-31.71-.06-2.11,0-5.29.55-5.23-2.67,0-2.76,3-3,5.25-3.11,10.21-.26,20.42-.08,30.63-.11,4,0,8,.19,11.7-1.2a1.06,1.06,0,0,0,.59-1.09c-16-2.3-31.86-.92-47.71-.73-4.33,7.65-1.6,15.87-1.79,23.77-.22,9.19.85,18.41-.38,27.61a3.09,3.09,0,0,0,2,3.34c10.48.58,21,0,29.13.23-5.78,0-13.87.16-22-.08-3-.09-8,1.7-8.09-3.34-.07-4.71,4.81-5.07,8.42-5.05,15.27.08,30.59-1.41,45.77,1.36,4.76.76,2.23,5.76,4.62,7.92,2.63,1.6,5.13,3.29,5.22,6.82Z"/><path class="cls-27" d="M345.45,411.11l-35.68.09c0-53.42.13-106.83-.19-160.25,0-8,2.56-10.44,10.23-10,8.44.53,16.95,0,25.42,0Q345.33,326.05,345.45,411.11Z"/><path class="cls-28" d="M433.29,227.83c-24.66,0-49.32-.21-74,.14-6.33.09-8.38-1.68-8.2-8.08.16-5.73.81-8.52,7.77-8.48q74.82.47,149.65,0c6.95,0,7.62,2.73,7.77,8.47.17,6.39-1.85,8.17-8.19,8.08C483.17,227.62,458.23,227.83,433.29,227.83Z"/><path class="cls-29" d="M508.5,332.81c-9.58-2.71.08-5.61-.09-8.41-4.64-2.77-7-6.4-4.47-11.88a3.94,3.94,0,0,1,3.68-1.71c1.57,1.59,4.22,1.72,6.43,4q0-24.95,0-49.89c3.36,4.88,1.31,10.36,1.5,15.52.37,10.42.11,20.86.12,31.29,0,3.14-.43,6.7,4.69,5.49l.42.68a2.7,2.7,0,0,1,.5,2.36c-1.14,2.71-3,4.59-6.12,5-2.7.33-.1,1.79-.32,2.76C514,331.54,510,330.44,508.5,332.81Z"/><path class="cls-30" d="M389.38,418c2-2,4.62-1.79,7.14-1.79h74.36c2.52,0,5.12-.23,7.14,1.79-1.05,3.86-4.23,3.1-6.95,3.1q-37.38,0-74.75,0C393.61,421.13,390.44,421.89,389.38,418Z"/><path class="cls-31" d="M608.73,187.22c7.4-.35,14.75-.34,21.1,4.3,7.31,5.34,7.64,11.84.5,17.17-2.62,2-4.52,3.92-4,8.24-9.38-7.21-22.25-4.14-28.32-14.72-4.52-2.6-3.8-6.46-1.85-10C598.84,187.33,603.12,185.33,608.73,187.22Z"/><path class="cls-32" d="M608.73,187.22c-6.67,2.79-13.87,5.19-10.74,15-5.7,1.84-11.84-.9-17.5,1.74-2,.94-3.36.18-2.76-2.28.49-2-.74-3-1.77-4.41-6.89-9.17-4.38-16.36,7-18.64C592.93,176.65,602.14,178.4,608.73,187.22Z"/><path class="cls-33" d="M283.54,191.62c6.67,14.93,6.67,14.93-8,20.8-6.83,2.73-13.87,5.05-20.43,8.33-6.05,3-8.18.68-9-4.92-.79-2.37.72-3.78,2.17-5.22a9.16,9.16,0,0,1,2.1-1.16c7.71-4,16-6.59,24-9.88,3-1.29,4.88-3.69,6.23-6.57C281.32,192,282.17,191.25,283.54,191.62Z"/><path class="cls-34" d="M249.75,212l-3.67,3.82c-4-9.63-7.94-19.33-12.19-28.87-1.59-3.56-.55-5,2.8-6.26,10.83-4.18,21.63-8.47,32.31-13,4-1.69,5.44-.31,6.7,3.33,2.4,6.94,5.21,13.75,7.85,20.61l-1.47,1.71c-5.88-.61-6.1-5.93-7.79-9.76-4.65-10.52-4.56-10.67-14.66-6.17-5.89,2.62-14,2.95-17.09,8.47-3.34,6,3.64,11.85,4.53,18.16C247.47,206.94,249.56,209.12,249.75,212Z"/><path class="cls-35" d="M518.79,80.79c4-3.37,8.26-.32,12.11.2,13.11,1.75,26.39,2.7,39.18,6.46a17.68,17.68,0,0,1-.78,2.24c-1.38,4.33-4.14,5.54-8.55,4.37-6.4-1.7-12.79-3.6-19.63-2.24-7.13,1.42-12.93-3.62-19.62-4.51C517.93,86.25,521.08,82.39,518.79,80.79Z"/><path class="cls-36" d="M566.39,123.3c-.94.53-2,1.66-2.81,1.51-16.06-2.94-32.45-3.85-48.33-7.9a10.76,10.76,0,0,1,.84-3.51c5.16-8.08,12.5-2.09,18.48-2.08,7.27,0,14.45,3.64,22.18,3.09,3.23-.23,5.75,1.94,7.22,5A13.82,13.82,0,0,0,566.39,123.3Z"/><path class="cls-37" d="M566.39,123.3c-1.4,0-2.69-.15-3.33-1.65a37.07,37.07,0,0,1,3.24-27.57c1.11-2.09.55-4.47,1.84-6.4l1.95-.24c2.54,9.75-1.73,19-2.31,28.46A58.17,58.17,0,0,1,566.39,123.3Z"/><path class="cls-38" d="M517.18,114.86l-1.93,2.05c-3.12-2.52-1.48-5.78-1.07-8.62,1.35-9.19,3-18.34,4.61-27.5,4.09.48,1.07,3.74,2.11,5.41,4.64,7.41,1,14.63-.76,21.77A39.88,39.88,0,0,1,517.18,114.86Z"/><path class="cls-39" d="M299.34,121.25c-3.65-10.41-4.12-21.42-6.05-32.16-.72-4,2.73-3.78,5-4.15,15.05-2.5,30.15-4.72,45.19-7.29,4.11-.7,5.72.87,6.22,4.6,1.31,9.79,2.67,19.57,4,29.36-6,1.93-11.73.49-17.24-2-8.25-3.71-15.76-5.12-22.42,3.52C310.56,117.62,304.73,119.41,299.34,121.25Z"/><path class="cls-40" d="M299.34,121.25c4.59-3.66,9.29-7.19,13.74-11,2.39-2,5.7-4,3.61-6.81,13.33-2.49,24.23,6.48,37,8.18-.74,2.54-3.12,2.27-4.89,2.51C332.29,116.36,316,120.34,299.34,121.25Z"/><path class="cls-41" d="M458.32,91.09c-8.87-6.74-16.26-4.54-24-3.37-13.23,2-25-5.67-29.58-17.71a28.42,28.42,0,0,1,45.18-31.65c9.71,8.52,13.2,22.67,6.52,33.84C452.63,78.56,455.38,83.14,458.32,91.09Z"/><path class="cls-27" d="M523.61,342.87c17.47-6.15,13.66-13.73,7.84-24-.55-1-1.23-2.54-2-2.6-10.54-.91-7.17-8.86-7.22-14.63-.17-20.32,0-40.64.06-61,8.78.15,17.58.73,26.34.32,7.21-.34,9.17,2.48,9.14,9.37-.23,53.61-.14,107.23-.15,160.84L522,411.12c-2.76-2.52-3.18-5.78-3.17-9.3,0-16.41,0-32.83.06-49.24C518.91,348.68,518.5,344.37,523.61,342.87Z"/><path class="cls-42" d="M362.17,411.12c-2.93-5.06.09-5.15,4-5.14q50.48.11,101,0h40.91c-3.41,4.36-6.7,3.38-9.52,3.4-17,.09-33.94,0-50.9.07-3,0-6.29-.67-8.89,1.75Z"/><path class="cls-43" d="M523.61,342.87c-2.43,1.92-1.68,4.65-1.68,7.09,0,20.38,0,40.77.08,61.15-5.59,1.87-6.79-.76-6.73-5.87.23-22.38.19-44.77.25-67.15l-.15-.26c4.32-3,6.66-.93,8.22,3.18Z"/><path class="cls-42" d="M438.77,411.23c22,.12,44-1,66,.58C482.78,412.71,460.76,413.64,438.77,411.23Z"/><path class="cls-44" d="M523.59,341c-2.56-1.52-4.91-3.59-8.22-3.18-1.55-2.69-3.6-4.7-6.88-5,0-.28.14-.66,0-.84-3.64-5,8.84-.75,3.83-6.88-2.34-2.86-3.58-6.61-4.81-10.44,4.44,2.07,6.37,12.92,13.27,3.23,2,3.69,6.09-2.23,8.83,2.41C535.93,331,535.82,332.64,523.59,341Z"/><path class="cls-45" d="M505.22,312.72c-1.72,4.65,2.17,7.77,3.19,11.67-14.94,0-29.88,0-44.82.07-3.17,0-6.59-.85-9.51,3.12h42.83L497,330c-3,2.15-6.7,1.05-10.06,1.12-8.22.17-16.48.46-24.67-.08-5.81-.39-9.59,1.46-11.84,6.7-.54-23.22-1.57-46.45.54-69.65,2.42,3.64,6.12,3.41,9.84,3.4q20.77-.07,41.54,0c4.77,0,8.24,1.06,4.57,6.82-2.24-2.89-5.43-2.54-8.54-2.53q-15.69,0-31.39,0c10.74,0,21.47,0,32.21,0,2.9,0,5.69,0,7.7,2.56-4.35,3.18-9.34,1.55-14,1.64-12.64.24-25.29.08-37.95,2H505.4l0,2.43c-17,2.22-34.23-.31-51.22,1.39l-.11,2.4h51.31q0,1.69,0,3.39H455l0,2.14q21.17,0,42.34,0c2.27,0,4.54,0,6.79.2,1.46.12,3,.79,2.89,2.45s-1.65,2.22-3.12,2.27c-4,.13-7.93.17-11.9.17-12.37,0-24.74,0-37.2,1.1,18.09-2.19,35,3,52.1,7.36-2.49,3.09-6,2.6-9.34,2.6-12.84,0-25.68,0-38.52,0,12.66.05,25.33,0,38,0C500,309.91,503.39,309.19,505.22,312.72Z"/><path class="cls-46" d="M455.55,392.14c-3.14.57-3-1.58-3-3.6,0-10.72.25-21.45.07-32.17-.07-4.35,1.38-6,5.81-6q21.59.26,43.18,0c4.25,0,6.17,1.26,6,5.79-.37,10.42-.42,20.84-.6,31.27-2.18,2.84-5.13,2.61-8.34,2.54-11.5-.27-23-.09-34.5-.12C461.1,389.87,458,389.69,455.55,392.14Z"/><path class="cls-42" d="M476.19,399.18c6.39,3.52,13.32,1,20,1.76,3.59.39,7.35-.81,10.8,2.28H360.49c8.75-4.53,18.72.43,27.41-4.16,23.29-1.49,46.6-.33,69.89-.58C463.91,398.42,470.11,397.57,476.19,399.18Z"/><path class="cls-47" d="M377.54,389.52c-9.47-2.58-14.19-8.45-14-17.39a17.6,17.6,0,0,1,13.93-17,17.9,17.9,0,0,1,19.85,9.63c3.89,8.07,1.81,15.55-6.18,22.25-3.7-2.67-3.73-6.54-3.13-10.41a21.43,21.43,0,0,0-.18-9c-2.28-5.68-5.77-8-11.51-4.18a11.56,11.56,0,0,0-2.16,2.54c-2.41,6-2.06,11.28,3.52,15.64C380.73,384,382,387,377.54,389.52Z"/><path class="cls-48" d="M390,365.45c2.53,7.07-.44,14.44,1.16,21.57-4.15,2.93-8.49,4.85-13.61,2.51.69-1.91,3.09-4,.16-5.76-10.57-6.26-10.79-9-5.14-21.48a28.7,28.7,0,0,1,3.69,4,18.06,18.06,0,0,0,9.23,2.81c1.24-.67,1.69-2,2.61-3A2.76,2.76,0,0,1,390,365.45Z"/><path class="cls-49" d="M444,280.93H362.09l0-1.51H444Z"/><path class="cls-50" d="M362.1,285.71H444l0,1.71H362.11Z"/><path class="cls-51" d="M362.11,306.16H444l0,1.71H362.1Z"/><path class="cls-52" d="M505.22,312.72c-15.31-.13-30.61-.22-45.92-.46-2.28,0-6.08,1.2-6.09-2.52s3.85-2.37,6-2.39c15.88-.14,31.77-.09,47.65-.09l.7,3.53Z"/><path class="cls-53" d="M509.46,343.11H357.89q0-.57,0-1.14H509.22Z"/><path class="cls-54" d="M455.55,392.14c-.74-4.44,1.77-4.86,5.37-4.82,15.38.17,30.75.12,46.13.15.43,4-1.4,5.43-5.37,5.2-5.6-.33-11.22-.24-16.84-.33a8.51,8.51,0,0,0-1.85-1.26,88,88,0,0,0-16.82,0,9.65,9.65,0,0,0-1.88,1.22Z"/><path class="cls-55" d="M402.83,271.21c6.77,0,13.54,0,20.31,0,1.57,0,3.76-.2,3.55,2.29-.15,1.76-2,1.68-3.31,1.68q-21.58.06-43.16,0c-1.33,0-3.15,0-3.15-1.86,0-2.5,2.23-2.11,3.76-2.12C388.16,271.16,395.5,271.2,402.83,271.21Z"/><path class="cls-56" d="M402.19,302.59c-7,0-14.09,0-21.14,0-1.55,0-3.82.37-3.93-1.95-.12-2.47,2.22-2.1,3.75-2.1q21.14-.08,42.28,0c1.56,0,3.75-.18,3.5,2.33-.17,1.75-2,1.68-3.32,1.69-7,.05-14.09,0-21.14,0Z"/><path class="cls-57" d="M404.84,294.84H362.09c14.18-3.78,28.46-2.59,42.71-2.7Z"/><path class="cls-58" d="M476.19,399.18c-29.43.59-58.87.83-88.3-.13,1.08-2.34,3.26-1.9,5.16-1.9q39.07,0,78.15,0C473,397.17,475.3,396.61,476.19,399.18Z"/><path class="cls-59" d="M447.38,357.65H408.1l0-1.69h39.3Z"/><path class="cls-60" d="M408.1,377.68h39.24l.05,1.67H408.13Z"/><path class="cls-61" d="M408,383h39.32l0,1.7H408.05Z"/><path class="cls-62" d="M451,268.12q-.27,34.83-.54,69.65c-.46-1-1.33-1.9-1.33-2.85q-.09-32.85,0-65.7a2.39,2.39,0,0,1,.65-1.46C449.88,267.62,450.55,268,451,268.12Z"/><path class="cls-49" d="M413.44,314a33.45,33.45,0,0,1-20.72.24C399.54,311.47,406.49,312.33,413.44,314Z"/><path class="cls-49" d="M444.07,314a32.87,32.87,0,0,1-20.69,0A39.09,39.09,0,0,1,444.07,314Z"/><path class="cls-57" d="M362.1,321.1c6.83-2.49,13.72-2.29,20.65-.36C376,323.65,369.07,322.63,362.1,321.1Z"/><path class="cls-57" d="M413.35,320.83a33.63,33.63,0,0,1-20.72,0C399.48,318.65,406.42,319.16,413.35,320.83Z"/><path class="cls-63" d="M362.1,327.85c6.84-2.52,13.72-2.27,20.62-.17C375.87,330,369,329.65,362.1,327.85Z"/><path class="cls-63" d="M415.79,328.08c-9.27,2.1-16.13,1.17-24,1C397.31,325.3,405,324.93,415.79,328.08Z"/><path class="cls-63" d="M423.41,327.76a33,33,0,0,1,20.66-.17C437.24,330.27,430.33,329.55,423.41,327.76Z"/><path class="cls-64" d="M362.11,333.06c6.89-2.66,13.75-1.86,20.63-.47C375.93,335.49,369,334.74,362.11,333.06Z"/><path class="cls-64" d="M413.31,332.4c-6.77,3-13.63,2.06-20.59,0Z"/><path class="cls-65" d="M421,332.52c9.29-2.1,16.14-1.16,24.06-1C439.46,335.27,431.84,335.64,421,332.52Z"/><path class="cls-57" d="M444,320.41c-6.82,2.71-13.7,2.52-20.68,0Z"/><path class="cls-49" d="M362.13,314.26a33.86,33.86,0,0,1,20.62-.21C375.93,316.65,369,315.78,362.13,314.26Z"/><path class="cls-66" d="M446.56,390.31H409.07v-.8h37.49Z"/><path class="cls-67" d="M446.19,373.33H408.85v-.93h37.57Z"/><path class="cls-66" d="M408.87,367.25h37.52v.85H408.87Z"/><path class="cls-68" d="M464.29,392.29a5.13,5.13,0,0,1,.12-1.61,55.22,55.22,0,0,1,20.29,0l.14,1.7A91.09,91.09,0,0,1,464.29,392.29Z"/><path class="cls-69" d="M479.6,223.66q-59.15.11-118.29.2c-2.65,0-5.83.86-6-3.77-.19-4.91,2.89-4.61,6.12-4.6l114.88.3c1.21,2.19,4.49,2.88,4.4,6A2.91,2.91,0,0,1,479.6,223.66Z"/><path class="cls-69" d="M479.6,223.66q.08-.68.11-1.36c1.51-2.27-1.83-4.36-.23-6.63,3.72-.92,5.21.61,5.18,4.34S482.47,224.09,479.6,223.66Z"/><path class="cls-69" d="M479.48,215.67c-.33,2.22,5,4.25.23,6.63-1.68-1.88-5.76-2.52-3.42-6.51Z"/><path class="cls-70" d="M504.91,220.18c-.72,1.78-2,2.45-3.39,2.1a2.5,2.5,0,0,1-1.84-3.77,2.45,2.45,0,0,1,3.43-1.28A2.49,2.49,0,0,1,504.91,220.18Z"/><path class="cls-71" d="M249.75,212c-7.32-3.68-6.88-11.73-9.58-17.83-5-11.23-6.34-9.54,6.05-14.64,6.54-2.69,13.26-5,19.63-8,4.95-2.36,6.9-.86,8.56,3.94,2.12,6.11,5.07,11.93,7.66,17.88,2.9,6.88-1.88,7.6-6.67,8.31a13.4,13.4,0,0,1-8.39-3.92c-2.51-3.25-5.67-4.54-9.59-2.88-4.32,1.83-3.41,5.94-3.81,9.44a11.87,11.87,0,0,1-4,7.57Z"/><path class="cls-72" d="M249.67,211.84c.11-3-.7-6.27,1.78-8.83,3.7-6.23,9.49-8.5,17-6.64,3.19.61,5.26,2.71,7,5.27A107,107,0,0,1,249.67,211.84Z"/><path class="cls-73" d="M517.18,114.86c-.14-9.73,2.13-19.15,3.72-28.66a17.89,17.89,0,0,1,9.4.94c10.52,3.57,22.26.18,32.84,5.19,3.16,1.5,3.17-3.19,5-4.65a164,164,0,0,1-5.07,34c-1.91-4.16-5.47-5.88-9.55-4.75-6.42,1.78-11.64-2.86-17.38-2.67C529.83,114.44,523.24,109,517.18,114.86Z"/><path class="cls-74" d="M431.35,84a24.23,24.23,0,0,1-24.13-24.49A23.61,23.61,0,0,1,431.16,35.9a24,24,0,0,1,24.27,23.39C455.75,72.46,444.57,83.91,431.35,84Z"/><path class="cls-75" d="M506.9,278.35c-15.8,0-31.61,0-47.41-.15-2.27,0-6.09,1.27-6.21-2.31-.15-4.49,4.1-2.73,6.46-2.76,13.83-.17,27.66-.05,41.48-.1,3.66,0,7.15-.08,5.69,5.3Z"/><path class="cls-76" d="M493.31,371.49a12.9,12.9,0,0,1-12.79,13c-7.83.13-13.37-5.44-13.17-13.24a13,13,0,0,1,13-12.76A13.44,13.44,0,0,1,493.31,371.49Z"/><path class="cls-77" d="M387.88,372.28c-5.59,2.77-9.12-3-14-3.34-.23-2.26,3.11-5.2-1.28-6.66,8.23-5.34,12.49-4.56,17.36,3.17l-.55-.13C387,367.21,387.84,369.83,387.88,372.28Z"/><path class="cls-78" d="M372.63,362.28l8-.55c-3.33,1.59-3,6.39-6.73,7.21-2.36-1.83-1.07-4.4-1.35-6.66Z"/><path class="cls-79" d="M387.88,372.28c-2.45-.25-3.31-1.41-2.35-3.83.73-1.83.46-4.74,3.9-3.13C390,367.87,390.62,370.46,387.88,372.28Z"/><path class="cls-80" d="M484.7,390.64l-20.29,0A28.76,28.76,0,0,1,484.7,390.64Z"/><path class="cls-81" d="M268.42,196.37c-5.19,3.39-11.93,2.82-17,6.64-1.13-4.36-1.57-11.22,1.65-11.84C258,190.22,265.92,187.4,268.42,196.37Z"/><path class="cls-82" d="M265.94,183.57c-1.48-.3-2.68-.94-2.68-2.67,0-2,1-3.19,3.09-3,1.67.17,2.32,1.36,2.28,3C268.59,182.63,267.4,183.24,265.94,183.57Z"/><path class="cls-83" d="M536.7,111.38a14.15,14.15,0,0,1,.19-9.26c.95-3.1-.81-8.28,2.6-9,3.75-.76,5.14,4.43,7,7.28,3.15,4.72-2.45,5.14-4.38,7.25C540.89,109,539,109.84,536.7,111.38Z"/><path class="cls-84" d="M449,68.91c.72,4.53-2.7,3.39-4.95,3.43-6.76.12-13.58-.5-20.28.17-7.68.76-10.39-2.11-9.12-9.47.33-1.94.35-3.94.51-5.91a5.53,5.53,0,0,1,6.75-1.83,6.08,6.08,0,0,1,2,1.21c2.32,3.86,7.07,2,10.1,4.24a7.34,7.34,0,0,1,1.77,1.53c1.18,1.52,2.07,3.52,4.63,2.67C444.49,63.59,446.6,66.52,449,68.91Z"/><path class="cls-85" d="M433.69,63.76q0-.78,0-1.56c.3-2,4.58-5.34-1.91-4.91-2.7.18-5.52,1.29-8.23-.16l-.21-.24a2.46,2.46,0,0,1,0-3.39c-.27-4.69,1.21-7.37,6.64-6.81a64.78,64.78,0,0,0,13.33.16c5.76-.61,6.91,1.9,5.69,6.77-3.32,2.83-3.39,5.66,0,8.49v1.73C443.88,65.74,438.77,67.15,433.69,63.76Z"/><path class="cls-86" d="M423.33,53.5l0,3.39-8.27.24a7.45,7.45,0,0,1-.17-2.51c.81-2.77-.39-7,3.58-7.69C423.44,46.11,421,51.78,423.33,53.5Z"/><path class="cls-87" d="M433.69,63.76l15.3.07,0,5.08c-3.38.39-6.12-3.31-10.24-.68C436.09,69.91,435,65.78,433.69,63.76Z"/><path class="cls-87" d="M449,62.1c-2.8-.16-6.23,0-6-4,.22-3.13,2.62-4.77,6-4.49Q449,57.86,449,62.1Z"/><path class="cls-88" d="M479.88,361.42c6.29.22,10,3.33,10.44,9.71.41,6-4.49,11.29-10.27,10.88-6.16-.45-10.11-4.19-10.16-10.28S473.42,361.89,479.88,361.42Z"/><path class="cls-87" d="M423.59,57.13c4.15-7,11.29.57,16.48-3.52-2.58,2.86,1.26,9.78-6.34,8.59a86.64,86.64,0,0,1-9.17-.28C420.15,61.34,421.32,59.26,423.59,57.13Z"/><path class="cls-89" d="M478.84,376.95c-1.2-3.93-2.73-8-.06-10.56,1.4-1.35,3.91,1.91,4.75,3.6C485.78,374.52,480.76,374.71,478.84,376.95Z"/></g></svg>