<svg xmlns="http://www.w3.org/2000/svg" viewBox="0 0 538 469"><defs><style>.cls-1{isolation:isolate;}.cls-17,.cls-2{fill:#ededed;}.cls-3{fill:#97f2f7;}.cls-4{fill:#81c3be;}.cls-5{fill:#3f3d3d;}.cls-6{fill:#40e7e6;}.cls-7{fill:#d63736;}.cls-8{fill:#484343;}.cls-9{fill:#fc7447;}.cls-10{fill:#b4bdb7;}.cls-11,.cls-15{fill:#fff;}.cls-12{fill:#5e5f5f;}.cls-13{fill:#f69777;}.cls-14{opacity:0.7;}.cls-15{opacity:0.4;}.cls-16{fill:#fb916c;}.cls-17{mix-blend-mode:multiply;}</style></defs><title>front-banner</title><g class="cls-1"><g id="Layer_3" data-name="Layer 3"><rect id="_Csoport_" data-name="&lt;Csoport&gt;" class="cls-2" x="167.85" y="0.32" width="177.7" height="261.2"/><rect class="cls-3" x="50.54" y="254.18" width="25.27" height="191.8"/><rect class="cls-4" x="50.54" y="449.19" width="25.27" height="9.14"/><rect class="cls-5" x="50.54" y="267.64" width="25.27" height="9.14" transform="translate(126.36 544.42) rotate(180)"/><rect class="cls-6" x="107.7" y="254.18" width="41.56" height="191.8"/><rect class="cls-7" x="107.7" y="449.19" width="41.56" height="9.14"/><rect class="cls-7" x="107.7" y="267.64" width="41.56" height="9.14" transform="translate(256.97 544.42) rotate(180)"/><rect class="cls-8" x="121.86" y="288.6" width="13.26" height="40.56"/><rect class="cls-9" y="254.18" width="50.54" height="191.8"/><rect class="cls-10" x="12.37" y="295.35" width="25.8" height="123.93"/><rect class="cls-5" x="75.81" y="254.18" width="31.89" height="191.8"/><rect class="cls-11" x="75.81" y="420.74" width="31.89" height="6.97"/><rect class="cls-11" x="75.81" y="276.78" width="31.89" height="6.97"/><rect class="cls-8" x="0.08" width="153.11" height="162.9"/><rect class="cls-11" x="11.39" y="12.02" width="130.51" height="138.85"/><path class="cls-12" d="M85.72,114.88H84.26v7.58H68.61v-7.58H67.15v17.45a3.38,3.38,0,0,0,3.37,3.38H82.31a3.38,3.38,0,0,0,3.37-3.38V123.2h0Z"/><path class="cls-9" d="M85.71,115c10.72-11.86,27.11-32.49,27.11-47.73,0-22.66-16.2-37.79-36.18-37.79S40.46,44.65,40.46,67.31c0,15.24,16.4,35.87,27.11,47.73Z"/><path class="cls-11" d="M83.08,115c7.61-11.86,19.24-32.49,19.24-47.73,0-22.66-11.5-37.79-25.68-37.79S51,44.65,51,67.31C51,82.55,62.6,103.18,70.2,115Z"/><path class="cls-9" d="M79.63,115c3.53-11.86,8.92-32.49,8.92-47.73,0-22.66-5.33-37.79-11.91-37.79S64.73,44.65,64.73,67.31c0,15.24,5.39,35.87,8.92,47.73Z"/><rect id="_Csoport_2" data-name="&lt;Csoport&gt;" class="cls-12" x="0.08" y="445.97" width="524.17" height="17.94"/><polygon class="cls-2" points="359.62 437.78 263.29 437.78 262.95 381.83 359.59 381.83 359.62 437.78"/><path class="cls-11" d="M395.52,446H227v-3.06a5.14,5.14,0,0,1,5.15-5.13H390.37a5.14,5.14,0,0,1,5.15,5.13Z"/><path class="cls-12" d="M521.86,343.28V74.42a10.29,10.29,0,0,0-10.27-10.25H111a10.28,10.28,0,0,0-10.22,10.25V343.28Z"/><rect class="cls-11" x="122.02" y="85.44" width="378.53" height="236.56"/><rect class="cls-9" x="131.16" y="94.59" width="360.25" height="15.24"/><path class="cls-11" d="M521.87,343.28v28.31a10.29,10.29,0,0,1-10.27,10.24H111a10.29,10.29,0,0,1-10.24-10.24V343.28Z"/><rect class="cls-3" x="131.16" y="137.86" width="179.81" height="96.06"/><rect class="cls-13" x="131.17" y="119.95" width="179.81" height="11.63"/><g class="cls-14"><polyline class="cls-11" points="150.96 233.84 199.55 156.77 250.63 233.84"/></g><polyline class="cls-15" points="209.31 233.84 248.22 180.35 288.49 233.84"/><path class="cls-11" d="M280.42,166.65a11.86,11.86,0,1,1-11.86-11.88A11.87,11.87,0,0,1,280.42,166.65Z"/><path class="cls-3" d="M336.08,138.76l-.88-2.29a14.24,14.24,0,0,0-3.23-5.72l2.29-2.18a19.75,19.75,0,0,1,2.89,4.16c2.49-3.32,7.35-8.61,13-8.61v3.16c-5.22,0-14.09,11.48-14.09,11.48"/><path class="cls-3" d="M370.87,138.76l-.88-2.29a14.48,14.48,0,0,0-3.23-5.72l2.28-2.18a19.59,19.59,0,0,1,2.9,4.16c2.48-3.32,7.35-8.61,13-8.61v3.16c-5.22,0-14.08,11.48-14.08,11.48"/><path class="cls-3" d="M404.89,138.76l-.88-2.29a14.48,14.48,0,0,0-3.23-5.72l2.28-2.18a19.59,19.59,0,0,1,2.9,4.16c2.48-3.32,7.35-8.61,13-8.61v3.16c-5.22,0-14.08,11.48-14.08,11.48"/><rect class="cls-2" x="327.03" y="153.78" width="160.52" height="4.13"/><rect class="cls-2" x="327.03" y="166.43" width="160.52" height="4.13"/><rect class="cls-2" x="327.03" y="179.09" width="160.52" height="4.13"/><rect class="cls-2" x="327.03" y="191.74" width="160.52" height="4.13"/><rect class="cls-2" x="327.03" y="204.4" width="160.52" height="4.13"/><rect class="cls-2" x="327.03" y="217.05" width="160.52" height="4.13"/><rect class="cls-2" x="327.03" y="229.71" width="160.52" height="4.13"/><path class="cls-12" d="M351.29,143.5H327V119.24h24.26Zm-22.91-1.35h21.56V120.59H328.38Z"/><path class="cls-12" d="M386,143.5H361.75V119.24H386Zm-22.91-1.35h21.56V120.59H363.1Z"/><path class="cls-12" d="M419.65,143.5H395.39V119.24h24.26Zm-22.91-1.35H418.3V120.59H396.74Z"/><path class="cls-3" d="M436.48,138l-.85-2.2a13.74,13.74,0,0,0-3.11-5.51l2.2-2.1a19,19,0,0,1,2.79,4c2.39-3.19,7.07-8.28,12.53-8.28v3c-5,0-13.56,11-13.56,11"/><path class="cls-3" d="M470,138l-.85-2.2a13.86,13.86,0,0,0-3.11-5.51l2.2-2.1a19.19,19.19,0,0,1,2.78,4c2.4-3.19,7.08-8.28,12.53-8.28v3c-5,0-13.55,11-13.55,11"/><path class="cls-12" d="M451.11,142.59H427.76V119.24h23.35Zm-22.05-1.3h20.75V120.54H429.06Z"/><path class="cls-12" d="M484.54,142.59H461.19V119.24h23.35Zm-22.05-1.3h20.75V120.54H462.49Z"/><polygon class="cls-6" points="255.12 296.47 134.52 296.47 146.58 272.35 134.52 248.23 255.12 248.23 255.12 296.47"/><polygon class="cls-9" points="475.48 296.48 354.89 296.48 354.89 248.23 475.48 248.23 487.54 272.36 475.48 296.48"/><rect class="cls-16" x="240.44" y="261.86" width="128.64" height="50.43"/><polygon class="cls-12" points="240.44 261.86 255.12 248.23 255.12 261.86 240.44 261.86"/><polygon class="cls-12" points="369.34 261.86 354.67 248.23 354.67 261.86 369.34 261.86"/><polygon class="cls-5" points="299.09 193.37 277.88 185.13 286.23 206.61 291.99 200.79 297.1 205.91 298.66 204.35 293.54 199.24 299.09 193.37"/><rect id="_Csoport_3" data-name="&lt;Csoport&gt;" class="cls-11" x="262.33" y="279.52" width="87.61" height="5.72"/><rect id="_Csoport_4" data-name="&lt;Csoport&gt;" class="cls-11" x="262.33" y="293.61" width="87.61" height="5.72"/><rect id="_Csoport_5" data-name="&lt;Csoport&gt;" class="cls-11" x="153.2" y="269.49" width="87.61" height="5.72"/><rect id="_Csoport_6" data-name="&lt;Csoport&gt;" class="cls-11" x="369.34" y="269.49" width="87.61" height="5.72"/><rect class="cls-10" x="306.3" y="361.51" width="195.1" height="84.5"/><path class="cls-2" d="M306.3,361.51l92.37,40.11a13,13,0,0,0,10.36,0l92.37-40.11"/><g id="post_it" data-name="post it"><path class="cls-6" d="M450.07,1.8l-88.56-.39a2.1,2.1,0,0,0-2.11,2.1l-.28,61.2,29.33,29.6,61.2.28a2.13,2.13,0,0,0,2.12-2.11l.4-88.55a2.13,2.13,0,0,0-2.1-2.13Z"/><path class="cls-11" d="M386.52,64.84l-27.39-.12,29.32,29.59h.05L388.63,67a2.14,2.14,0,0,0-2.11-2.12Z"/><path class="cls-17" d="M416.71,94.43l-28.6-28.84h0a2.09,2.09,0,0,1,.54,1.36l-.13,27.35Z"/></g><rect class="cls-11" x="371.85" y="17.02" width="67.58" height="3.62"/><rect class="cls-11" x="371.85" y="27.16" width="67.58" height="3.62"/><rect class="cls-11" x="371.85" y="37.29" width="67.58" height="3.62"/><rect class="cls-11" x="371.85" y="47.43" width="33.55" height="3.62"/><path id="_Csoport_7" data-name="&lt;Csoport&gt;" class="cls-10" d="M340.82,7a3.15,3.15,0,1,1-3.15-3.15A3.15,3.15,0,0,1,340.82,7Z"/><path id="_Csoport_8" data-name="&lt;Csoport&gt;" class="cls-10" d="M178.07,7a3.15,3.15,0,1,1-3.15-3.15A3.14,3.14,0,0,1,178.07,7Z"/></g></g></svg>