<svg xmlns="http://www.w3.org/2000/svg" viewBox="0 0 867 454"><defs><style>.cls-1{fill:#fff;}.cls-2{fill:#6c6c6c;}.cls-3{fill:#484848;}.cls-4{fill:#026fae;}.cls-5{fill:#84cffe;}.cls-6{fill:#ecf7fe;}.cls-7{fill:#f8fcfe;}.cls-8{fill:#fbfdfe;}.cls-9{fill:#f5fbfe;}.cls-10{fill:#f4fafe;}.cls-11{fill:#7bcbfe;}</style></defs><title>12</title><g id="Layer_3" data-name="Layer 3"><path class="cls-1" d="M787.32,40.56c2.78.46,5.58.83,8.34,1.38,25.62,5.1,46.23,26.15,50.5,52C850,117.16,843.09,137,826,153a60.52,60.52,0,0,1-36.08,16.4c-22.25,2.26-41-5-55.95-21.58a60.69,60.69,0,0,1-15.6-35c-2.28-21.53,4.44-39.93,20.11-54.85a62.57,62.57,0,0,1,35.18-16.82c1.42-.2,2.9,0,4.26-.62Z"/><path class="cls-1" d="M19.81,101.16c.46-2.78.84-5.58,1.38-8.35C25.88,68.62,46,48,70,43c23.84-5,44.45,1.28,61.44,18.64a61,61,0,0,1,17.24,37c3.37,31-14.78,59.58-44.6,68.91-22.47,7-43.24,2.74-61.44-12.35-11.57-9.59-18.6-22-21.63-36.74-.53-2.59-.81-5.23-1.21-7.85Q19.81,105.86,19.81,101.16Z"/><path class="cls-1" d="M436,40.56c3.28.64,6.62.87,9.88,1.66a64,64,0,0,1,41,29.9c7.28,11.91,10,25,8.94,38.82-2.14,27.58-23.18,51.75-50.4,57.36-24,4.94-44.7-1.59-61.55-19.33-10.14-10.67-15.61-23.65-16.9-38.39-2.66-30.32,16.65-58.06,44.9-67a57.58,57.58,0,0,1,13.76-2.72,1.27,1.27,0,0,0,1-.3Z"/><path class="cls-1" d="M564.74,348.72a64.63,64.63,0,1,1,129.26.5c0,35.24-29.28,64.37-64.72,64.22A64.6,64.6,0,0,1,564.74,348.72Z"/><path class="cls-1" d="M184.55,348.53a64.68,64.68,0,1,1,64.27,64.88A64.68,64.68,0,0,1,184.55,348.53Z"/><path class="cls-1" d="M294,282.48a3.74,3.74,0,0,1-.68-.47c-.32-.34,0-.64.15-.92.84-1.25,1.68-2.5,2.53-3.75l52.31-76.75,20.48-30c.13-.19.26-.38.39-.58.32-.51.68-.77,1.27-.34s.23.8,0,1.17c-.88,1.3-1.77,2.58-2.65,3.87L295.18,281.18C294.86,281.64,294.66,282.23,294,282.48Z"/><path class="cls-1" d="M496.79,169.37c.67.18.83.79,1.14,1.25q12.51,18.93,25,37.88l47.37,71.88c.13.19.24.4.38.58.38.48.48.9-.14,1.29s-.82-.12-1.06-.48q-2.31-3.47-4.61-7l-40.18-61-27.95-42.4a11.75,11.75,0,0,1-.66-1C495.68,169.62,496.35,169.57,496.79,169.37Z"/><path class="cls-1" d="M138.37,167.13c.57.1.72.66,1,1.07q7.05,10.66,14.09,21.33l58.37,88.59c.19.29.38.58.58.87s.36.71-.13,1-.76.26-1-.17-.59-.86-.88-1.3q-36-54.67-72.06-109.35C137.87,168.54,136.85,167.78,138.37,167.13Z"/><path class="cls-1" d="M673.19,276.61c-.89-.28-.71-.75-.36-1.34,1.82-3,3.62-6.08,5.43-9.11q28.44-47.52,56.91-95c.37-.61.57-2.13,1.62-1.48s-.2,1.53-.58,2.16q-30.9,51.72-61.87,103.4C674,275.75,673.88,276.44,673.19,276.61Z"/><path class="cls-2" d="M117.42,181.12c0,.66-.37,1.1-1,1.1a1,1,0,0,1-1.15-1.18c0-.57.31-1.12,1-1.14S117.31,180.46,117.42,181.12Z"/><path class="cls-3" d="M812.23,183.33c0,.53-.27.85-.74.85a.76.76,0,1,1,.74-.85Z"/><path class="cls-4" d="M842,105.3a59.48,59.48,0,1,1-59.49-59.54A59.36,59.36,0,0,1,842,105.3Z"/><path class="cls-4" d="M84.6,46.48A59.49,59.49,0,1,1,25,105.76,59.39,59.39,0,0,1,84.6,46.48Z"/><path class="cls-4" d="M431.39,45.77a59.48,59.48,0,1,1-59.56,58.82C372.08,72.33,398.81,45.76,431.39,45.77Z"/><path class="cls-4" d="M569.92,348.66c-.24-32,26.07-59.45,59.61-59.42a59.51,59.51,0,0,1-.36,119C595.55,408.09,569.58,380.49,569.92,348.66Z"/><path class="cls-4" d="M189.75,348.75a59.52,59.52,0,1,1,59.19,59.52C216.42,408.23,189.75,381.42,189.75,348.75Z"/><path class="cls-1" d="M801.91,78.22c3,2,3.08,5.28,3.17,8.32a30.87,30.87,0,0,1-3.54,14.54,50,50,0,0,1-11.6,15c-1.13,1-1.5,1.81-.74,3.38a7,7,0,0,1,0,5.75c-2.7,6.34-7.9,10.36-13.48,14.41a4.34,4.34,0,0,1,1-2.75,20.3,20.3,0,0,0,2.81-7.94,4.92,4.92,0,0,0-.05-1.54c-.49-2.26-.94-2.47-2.71-1.12-1.33,1-2.63,2.09-3.9,3.19a1.18,1.18,0,0,1-1.79.09c-2.62-2-5.29-3.94-7.95-5.89a1.36,1.36,0,0,1-.53-2c.81-1.6,1.38-3.31,2.06-5,.46-1.13.25-1.71-1.13-1.78a7.67,7.67,0,0,0-5.12,1.84,29.3,29.3,0,0,0-4.89,4.42,2.16,2.16,0,0,1-1.28,1,1.75,1.75,0,0,1-.05-.66c2.1-5.72,4.12-11.47,8.81-15.75a8.22,8.22,0,0,1,7-2.33,1.62,1.62,0,0,0,2-1.13,56.26,56.26,0,0,1,7.94-12.61,35.75,35.75,0,0,1,13.64-10.29C794.82,78.07,798.27,76.87,801.91,78.22Z"/><path class="cls-5" d="M801.91,78.22c-7.42-.83-13.42,2.17-18.94,6.76-1.78,1.48-3.11,3.4-5,4.68.69-1.74,2.21-2.8,3.5-4a30,30,0,0,1,9.79-6.42c2.46-.9,4.9-2,7.59-2.14A3.63,3.63,0,0,1,801.91,78.22Z"/><path class="cls-1" d="M95.79,113.76c-.24.73.34,1.08.69,1.46,1.22,1.32,2.49,2.59,3.72,3.91,1.53,1.65,1.6,3.64.22,4.95s-3.24,1.14-4.8-.37-2.86-2.89-4.32-4.29c-.51-.49-.95-1.16-1.78-1.28-.24.76.36,1.09.71,1.48,1.33,1.46,2.74,2.84,4.05,4.31a3.2,3.2,0,0,1-.1,4.54,3.1,3.1,0,0,1-4.51-.16c-1.5-1.45-2.94-3-4.42-4.44-.44-.44-.82-1-1.52-1.11-.51.62.06,1,.36,1.3,1.06,1.16,2.17,2.26,3.25,3.4,1.64,1.72,1.77,3.51.37,4.91s-3.32,1.17-4.92-.4a3.75,3.75,0,0,1-1.3-3,6.54,6.54,0,0,0-4-6.22c-.71-.36-1.31-.7-1.45-1.54a2.1,2.1,0,0,0-.21-.47c-.86-1.92-3-2.56-4.18-4s-1.91-3.27-3.74-4.15a2.33,2.33,0,0,1-1.38-1.2A6.75,6.75,0,0,0,59.92,107a8,8,0,0,0-7.3,3.92c-.32.5-.24,1.86-1.41,1.17s-3.27,0-3.23-2.53c.11-7.43.07-14.85,0-22.28,0-1.37.32-1.55,1.54-1.07,2,.79,4,1.41,6.07,2.13a7.61,7.61,0,0,0,7.13-.84,49.83,49.83,0,0,1,8.93-4.64,9.54,9.54,0,0,1,9,.53c1.52.94,1.5,1.07,0,1.94-2.8,1.63-5.66,3.19-8.37,5a6.76,6.76,0,0,0-3.13,7.36,7.15,7.15,0,0,0,5.74,5.84,6.86,6.86,0,0,0,4.54-.77q3.58-1.57,7.12-3.24a4.64,4.64,0,0,1,5.72,1q6.72,6.7,13.42,13.42c1.53,1.54,1.61,3.44.29,4.79s-3.21,1.28-4.78-.22c-1.34-1.28-2.64-2.61-4-3.88C96.82,114.2,96.53,113.59,95.79,113.76Z"/><path class="cls-1" d="M121.14,99.36c0,3.19,0,6.38,0,9.57,0,1-.23,1.47-1.26,1.62-1.89.27-3.76.68-5.65,1a6.12,6.12,0,0,1-5.7-1.82c-4.62-4.64-9.32-9.22-14-13.82-2.27-2.25-3.81-2.52-6.7-1.06-3.05,1.54-6.08,3.13-9.11,4.7-2.64,1.37-5.11.81-6.28-1.44s-.25-4.51,2.26-5.92c5.56-3.12,11.14-6.19,16.63-9.41a5.82,5.82,0,0,1,7.48.65c2.28,2,4.61,3.89,6.89,5.87a4.91,4.91,0,0,0,4.65,1.21c3.1-.74,6.24-1.3,9.33-2.07,1.24-.31,1.46,0,1.44,1.19C121.1,92.86,121.14,96.11,121.14,99.36Z"/><path class="cls-1" d="M69.65,128.71c-5.55,1.26-6.48-1.29-5.13-4.9-1.58.13-3.19,1.05-4.57-.45s-.71-2.87-.14-4.33c-.69-.31-1.2.13-1.75.21a3.06,3.06,0,0,1-3.74-3,6.36,6.36,0,0,1,4.08-5.71,3.81,3.81,0,0,1,5.18,3.8c0,.85,0,1,.93,1,2.52.06,3.68,1.35,3.78,4,0,.55-.1.91.73,1,3.42.39,4.28,1.55,4,5.27.35,0,.68-.06,1-.07a3.87,3.87,0,0,1,3.59,5.8,6.26,6.26,0,0,1-5.95,3.14A3,3,0,0,1,69,130.16C69.19,129.72,69.4,129.31,69.65,128.71Z"/><path class="cls-1" d="M403.3,90.44a7.25,7.25,0,0,1,.56-3.69c.58-1,.92-1,1.63-.25q3.3,3.35,6.64,6.66c1.5,1.5,2.3,1.5,3.79,0,1.24-1.23,2.45-2.47,3.69-3.7a1.86,1.86,0,0,0,0-3c-2.26-2.25-4.49-4.54-6.76-6.78-.82-.82-1.46-1.41.26-2a10.47,10.47,0,0,1,7,.12,13.54,13.54,0,0,1,7,4.84,12,12,0,0,1,2.5,8.28,3.31,3.31,0,0,0,1.14,2.91q12.13,12,24.19,24.07a23.6,23.6,0,0,1,2.92,3.22,6.85,6.85,0,0,1,.5,7.83c-1.45,2.44-3.44,4.23-6.67,4.2a7.58,7.58,0,0,1-5.7-2.37Q433.2,117.88,420.4,105a3.8,3.8,0,0,0-3.19-1.31,13.24,13.24,0,0,1-13.15-8.86A10.52,10.52,0,0,1,403.3,90.44Z"/><path class="cls-1" d="M459.22,83.72c.21,2.33-1.17,4-2.6,5.45-4.21,4.31-8.35,8.69-12.86,12.7-.69.61-1.1.58-1.71,0q-3.64-3.73-7.36-7.39c-.67-.66-.54-1.11.07-1.72,4.48-4.46,8.88-9,13.42-13.37a6.45,6.45,0,0,1,4.56-2.17A6.8,6.8,0,0,1,459.22,83.72Z"/><path class="cls-1" d="M407.37,133.06c-.89-.31-1.24-1.22-1.93-1.71-1.46-1-1.55-2.06-.45-3.58,1.89-2.62,3.6-5.39,5.22-8.19,1-1.68,2.52-1.92,4.1-2a3.51,3.51,0,0,0,2.55-1.21c1.4-1.47,2.9-2.84,4.27-4.34.95-1,1.62-.91,2.55,0,2.38,2.44,2.42,2.4,0,4.79a15.84,15.84,0,0,1-1.49,1.46,7.91,7.91,0,0,0-3.26,6.32,1.51,1.51,0,0,1-.65,1.33l-10.43,6.84A4.48,4.48,0,0,1,407.37,133.06Z"/><path class="cls-1" d="M630.38,317c2,0,4.06,0,6.09,0,1.14,0,1.58.41,1.48,1.53a19,19,0,0,0,0,2.26c0,1-.34,1.58-1.4,1.53-1.22-.06-1.42.66-1.4,1.67,0,2.32.07,4.64,0,7,0,1.26.43,1.8,1.66,2.18,8.84,2.8,14.72,8.83,16.58,17.75,1.43,6.89.36,13.83-4.36,19.71a27.62,27.62,0,0,1-11.57,8.2c-4.15,1.71-8.41,1.28-12.41.69A20,20,0,0,1,615,374.37,28.88,28.88,0,0,1,607,362.14a20.18,20.18,0,0,1-.61-10.21,22.51,22.51,0,0,1,3.57-8.52,23.94,23.94,0,0,1,13.37-10.19A2,2,0,0,0,625,331c-.1-2.37,0-4.76,0-7.13,0-.73,0-1.49-1-1.5-1.34,0-1.44-.85-1.43-1.88,0-3.95-.33-3.45,3.42-3.47Z"/><path class="cls-1" d="M226.31,349.63c0-9.17,0-18.33,0-27.5,0-1.72.64-2.29,2.24-2.22,1.33.06,2.67.06,4,0,.92,0,1.23.3,1.19,1.2-.06,1.39,0,2.78,0,4.18s.51,1.91,1.87,1.91q12.88,0,25.76,0c1.43,0,2-.69,1.94-2s0-2.67,0-4c0-.86.16-1.28,1.13-1.24,1.45.06,2.9,0,4.35,0,1.26,0,1.94.54,1.94,1.88q0,11.84,0,23.67a3.53,3.53,0,0,1-.62,1.78q-8.72,15.42-17.43,30.85a2.14,2.14,0,0,1-2.19,1.24q-11-.06-21.93,0c-1.62,0-2.24-.51-2.22-2.22C226.35,368,226.31,358.8,226.31,349.63Z"/><path class="cls-1" d="M248.43,326c-3.71,0-7.43,0-11.14,0-2,0-2.3-.33-2.31-2.35,0-1.22,0-2.44,0-3.66s.57-1.91,1.89-1.89c2.15,0,4.29,0,6.44,0,.83,0,1.29-.1,1.61-1.07a3.36,3.36,0,0,1,3.41-2.44,3.47,3.47,0,0,1,3.75,2.45c.31.94.81,1.08,1.65,1.06,2.09,0,4.18,0,6.27,0,1.32,0,1.93.55,1.89,1.88,0,1.16,0,2.32,0,3.48,0,2.26-.26,2.53-2.46,2.53Z"/><path class="cls-1" d="M258,381c-1.31-.77-2.67-1.52-4-2.37-.36-.23.06-.62.21-.89,4.42-7.79,8.86-15.57,13.26-23.37.47-.83.85-.81,1.61-.4,3.49,1.91,3.5,1.89,1.55,5.32q-5.83,10.24-11.66,20.49C258.79,380.25,258.68,380.82,258,381Z"/><path class="cls-1" d="M270.62,362.49c0,5,0,10.07,0,15.11a1.5,1.5,0,0,1-1.69,1.72c-2.32,0-4.64,0-7,0-.91,0-1-.3-.56-1q4.45-7.94,8.87-15.89Z"/><path class="cls-1" d="M252.84,385.46l.71-5.91c.14,0,.21-.08.25-.06,4.27,2,4.27,2,.59,4.82C254,384.65,253.5,385,252.84,385.46Z"/><path class="cls-1" d="M273.84,353c-1.24-.72-2.53-1.46-3.8-2.23-.29-.18-.21-.48,0-.75s.39-.72.92-.55a10.55,10.55,0,0,1,3.55,2,.6.6,0,0,1,.13.9C274.44,352.7,274.37,353.12,273.84,353Z"/><path class="cls-6" d="M273.62,354.22c-.3.44-.41,1.12-1.15.7l-3.45-2c-.41-.24-.32-.56-.12-.88s.34-.66.79-.41q1.87,1.07,3.73,2.18C273.52,353.9,273.56,354.1,273.62,354.22Z"/><path class="cls-7" d="M795.95,94.52a5.39,5.39,0,0,1-5.08,5.14,5.27,5.27,0,0,1-5.18-5.22,5,5,0,0,1,5.16-5.11A5,5,0,0,1,795.95,94.52Z"/><path class="cls-4" d="M630.32,354c5.22,0,10.44,0,15.65,0,1.56,0,2.14.41,2.14,2.06,0,10.68-9.24,19.23-19.85,18-7.64-.89-14-6.08-15.49-14a24.19,24.19,0,0,1-.59-4.1c0-1.44.55-2,2-1.94C619.53,354.07,624.93,354,630.32,354Z"/><path class="cls-6" d="M248.44,349.7c-4.46,0-8.92,0-13.38,0-.54,0-1.39.37-1.42-.72s.89-.83,1.48-.83q13.29,0,26.59,0c.58,0,1.54-.41,1.51.8s-1,.74-1.56.74C257.25,349.71,252.84,349.7,248.44,349.7Z"/><path class="cls-8" d="M248.43,333.36c4.46,0,8.92,0,13.37,0,.52,0,1.4-.42,1.4.7s-.87.73-1.4.73q-13.37,0-26.75,0c-.54,0-1.4.37-1.4-.73s.89-.69,1.4-.7C239.51,333.35,244,333.36,248.43,333.36Z"/><path class="cls-9" d="M248.43,340.77c4.47,0,8.94,0,13.4,0,.55,0,1.4-.34,1.38.76s-.81.65-1.29.65q-13.49,0-27,0c-.48,0-1.27.34-1.29-.65s.82-.76,1.38-.77C239.49,340.76,244,340.77,248.43,340.77Z"/><path class="cls-4" d="M250,318h-3a1.3,1.3,0,0,1,1.41-1.27C249.21,316.71,249.71,317.16,250,318Z"/><path class="cls-10" d="M640,367.52l-.71.69a8.61,8.61,0,0,1-3.23,1.88c-.62.24-1.48.27-1.68-.63a1.12,1.12,0,0,1,1.07-1.31,6.63,6.63,0,0,0,2.11-1l.71-.68a5.84,5.84,0,0,0,1-1.58c.34-.65.87-1,1.54-.64s.53,1.13.19,1.67A9.33,9.33,0,0,1,640,367.52Z"/><path class="cls-1" d="M637.53,367.16a2.72,2.72,0,0,1-2,1.2c-.54.1-1.08.44-.93,1s.89.68,1.43.44c1.09-.49,2.15-1.07,3.22-1.62-.79,1.46-2.25,1.81-3.67,2.15a1.11,1.11,0,0,1-1.48-.82A1.24,1.24,0,0,1,635,368C635.81,367.7,636.68,367.45,637.53,367.16Z"/><path class="cls-11" d="M640,367.52c.17-.42.33-.86.53-1.27.28-.58,1.09-1.21.14-1.74s-1,.43-1.34.94-.43,1-1.07,1a22.23,22.23,0,0,1,1-2,1.23,1.23,0,1,1,2.21,1.06C641.12,366.26,640.88,367.15,640,367.52Z"/></g></svg>